# xmcd
# Copyright (C) 1995-1998 Ti Kan
#
# Track frame offsets:
#       150
#       17508
#       38382
#       49387
#       69560
#       83625
#       106698
#       117970
#       132977
#       157522
#       168165
#
# Disc length: 2481 seconds
#
# Revision: 0
# Processed by: cddbd v1.5.2PL0 Copyright (c) Steve Scherf et al.
# Submitted via: CD-Import v1.0
#
DISCID=7509af0b
DTITLE=Sarda - Olbia
DYEAR=09
DGENRE=
TTITLE0=Bugie
TTITLE1=Retrospettiva 2
TTITLE2=Lelule
TTITLE3=Il Pescatore
TTITLE4=Peccatrice
TTITLE5=Mondo Diverso
TTITLE6=Johnny
TTITLE7=Lontano
TTITLE8=Retrospettiva 1
TTITLE9=Non Cambiare Mai
TTITLE10=Tutto S'innamora Di Te
EXTD=
EXTT0=
EXTT1=
EXTT2=
EXTT3=
EXTT4=
EXTT5=
EXTT6=
EXTT7=
EXTT8=
EXTT9=
EXTT10=
PLAYORDER=
